<?xml version="1.0" encoding="iso-8859-1"?>
<!-- Generator: Adobe Illustrator 19.0.0, SVG Export Plug-In . SVG Version: 6.00 Build 0)  -->
<svg version="1.1" id="Capa_1" xmlns="http://www.w3.org/2000/svg" xmlns:xlink="http://www.w3.org/1999/xlink" x="0px" y="0px"
	 viewBox="0 0 480 480" style="enable-background:new 0 0 480 480;" xml:space="preserve">
<g>
	<path style="fill:#B3B3B3;" d="M440,304h-64v-16h64c13.232,0,24-10.768,24-24v-48c0-13.232-10.768-24-24-24h-45.496
		c-6.496,0-12.296-3.872-14.784-9.872s-1.128-12.84,3.472-17.44L426.68,121.2c4.528-4.528,7.024-10.552,7.024-16.968
		s-2.496-12.44-7.024-16.968L392.736,53.32c-9.36-9.36-24.576-9.36-33.936,0l-43.488,43.488c-4.592,4.592-11.432,5.96-17.44,3.472
		c-6-2.488-9.872-8.296-9.872-14.784V40c0-13.232-10.768-24-24-24h-48c-13.232,0-24,10.768-24,24v45.496
		c0,6.496-3.88,12.296-9.88,14.784c-5.984,2.496-12.84,1.128-17.432-3.472l-43.48-43.488c-9.368-9.368-24.592-9.36-33.944,0
		L53.32,87.264c-4.528,4.528-7.024,10.552-7.024,16.968s2.496,12.44,7.024,16.968l43.48,43.488c4.592,4.592,5.952,11.44,3.472,17.44
		S91.984,192,85.496,192H40c-13.232,0-24,10.768-24,24v48c0,13.232,10.768,24,24,24h64v16H40c-22.056,0-40-17.944-40-40v-48
		c0-22.056,17.944-40,40-40h45.496l-43.48-43.488c-7.552-7.552-11.712-17.592-11.712-28.28s4.16-20.728,11.712-28.28L75.96,42.008
		c15.6-15.584,40.976-15.592,56.568,0L176,85.496V40c0-22.056,17.944-40,40-40h48c22.056,0,40,17.944,40,40v45.496l43.488-43.488
		c15.592-15.592,40.968-15.592,56.56,0l33.944,33.944c7.552,7.552,11.712,17.592,11.712,28.28s-4.16,20.728-11.712,28.28
		L394.504,176H440c22.056,0,40,17.944,40,40v48C480,286.056,462.056,304,440,304z"/>
	<path style="fill:#B3B3B3;" d="M304,200h-16v-22.808c0-2.848-1.528-5.504-3.992-6.92L244,147.176c-2.472-1.424-5.536-1.44-8,0
		l-40,23.096c-2.472,1.424-4,4.072-4,6.92V200h-16v-22.808c0-8.552,4.6-16.512,12.008-20.784L228,133.312
		c7.4-4.264,16.592-4.264,24,0l40,23.096c7.4,4.256,12,12.224,12,20.784V200z"/>
	<rect x="232" y="80" style="fill:#B3B3B3;" width="16" height="16"/>
	<rect x="336" y="128" style="fill:#B3B3B3;" width="16" height="16"/>
	<rect x="128" y="128" style="fill:#B3B3B3;" width="16" height="16"/>
	<rect x="400" y="232" style="fill:#B3B3B3;" width="16" height="16"/>
	<rect x="64" y="232" style="fill:#B3B3B3;" width="16" height="16"/>
</g>
<path style="fill:#BD252A;" d="M432,400H48c-8.84,0-16,7.16-16,16v8c0,8.84,7.16,16,16,16h384c8.84,0,16-7.16,16-16v-8
	C448,407.16,440.84,400,432,400z"/>
<g style="opacity:0.5;">
	<path style="fill:#8E1C20;" d="M56,424v-8c0-8.84,7.16-16,16-16H48c-8.84,0-16,7.16-16,16v8c0,8.84,7.16,16,16,16h24
		C63.16,440,56,432.84,56,424z"/>
</g>
<g>
	<path style="fill:#FD3238;" d="M408.184,302.24L384,288l0,0l-21.664-63.176c-6.72-19.6-25.584-32.824-46.832-32.824H164.496
		c-21.248,0-40.12,13.224-46.84,32.824L96,288l0,0l-26.352,13.6C56.352,308.472,48,322.184,48,337.144V400h136h112h136v-61.176
		C432,322.992,422.664,308.648,408.184,302.24z"/>
	<rect x="376" y="272" style="fill:#FD3238;" width="40" height="16"/>
	<rect x="64" y="272" style="fill:#FD3238;" width="40" height="16"/>
</g>
<path style="fill:#C6D1D6;" d="M96,288l65.832,16h156.344L384,288l-21.664-63.176c-6.72-19.6-25.584-32.824-46.832-32.824H164.496
	c-21.248,0-40.12,13.224-46.84,32.824L96,288z"/>
<g style="opacity:0.5;">
	<path style="fill:#A0B2BA;" d="M141.664,224.824c6.72-19.6,25.584-32.824,46.84-32.824h-24c-21.248,0-40.12,13.224-46.84,32.824
		L96,288l65.832,16h24L120,288L141.664,224.824z"/>
</g>
<g style="opacity:0.5;">
	<path style="fill:#BE262A;" d="M93.648,301.608l18.504-9.552L96,288l-26.352,13.608C56.352,308.472,48,322.184,48,337.144V400h24
		v-62.856C72,322.184,80.352,308.472,93.648,301.608z"/>
</g>
<path style="fill:#5F1315;" d="M112,480H80c-8.84,0-16-7.16-16-16v-24h64v24C128,472.84,120.84,480,112,480z"/>
<path style="fill:#50595D;" d="M112,480H80c-8.84,0-16-7.16-16-16v-24h64v24C128,472.84,120.84,480,112,480z"/>
<g style="opacity:0.5;">
	<path style="fill:#414547;" d="M80,464v-24H64v24c0,8.84,7.16,16,16,16h16C87.16,480,80,472.84,80,464z"/>
</g>
<path style="fill:#50595D;" d="M400,480h-32c-8.84,0-16-7.16-16-16v-24h64v24C416,472.84,408.84,480,400,480z"/>
<g>
	<path style="fill:#FDD38D;" d="M376,368h-72v-16c0-8.84,7.16-16,16-16h80v8C400,357.256,389.256,368,376,368z"/>
	<path style="fill:#FDD38D;" d="M104,368h72v-16c0-8.84-7.16-16-16-16H80v8C80,357.256,90.744,368,104,368z"/>
</g>
<g>
	<circle style="fill:#FCB641;" cx="116" cy="420" r="20"/>
	<circle style="fill:#FCB641;" cx="356" cy="420" r="20"/>
</g>
<rect x="184" y="400" style="fill:#FDC567;" width="112" height="56"/>
<g>
	<rect x="200" y="328" style="fill:#BE262A;" width="80" height="16"/>
	<rect x="200" y="360" style="fill:#BE262A;" width="80" height="16"/>
</g>
<rect x="216" y="216" style="fill:#A0B2BA;" width="48" height="16"/>
<g>
</g>
<g>
</g>
<g>
</g>
<g>
</g>
<g>
</g>
<g>
</g>
<g>
</g>
<g>
</g>
<g>
</g>
<g>
</g>
<g>
</g>
<g>
</g>
<g>
</g>
<g>
</g>
<g>
</g>
</svg>
